<svg
    xmlns="http://www.w3.org/2000/svg"
    version="1.1"
    xmlns:xlink="http://www.w3.org/1999/xlink"
    xmlns:svgjs="http://svgjs.dev/svgjs"
    viewBox="0 0 1000 1000"
    opacity="1"
    width="1000"
    height="1000"
>
    <g stroke-width="1.75" stroke="hsl(0, 0%, 0%)" fill="none">
        <rect width="100" height="100" x="0" y="0"></rect>
        <rect width="100" height="100" x="0" y="100"></rect>
        <rect width="100" height="100" x="0" y="200"></rect>
        <rect width="100" height="100" x="0" y="300"></rect>
        <rect width="100" height="100" x="0" y="400"></rect>
        <rect width="100" height="100" x="0" y="500"></rect>
        <rect width="100" height="100" x="0" y="600"></rect>
        <rect width="100" height="100" x="0" y="700"></rect>
        <rect width="100" height="100" x="0" y="800"></rect>
        <rect width="100" height="100" x="0" y="900"></rect>
        <rect width="100" height="100" x="0" y="1000"></rect>
        <rect width="100" height="100" x="100" y="0"></rect>
        <rect width="100" height="100" x="100" y="100"></rect>
        <rect width="100" height="100" x="100" y="200"></rect>
        <rect width="100" height="100" x="100" y="300"></rect>
        <rect width="100" height="100" x="100" y="400"></rect>
        <rect width="100" height="100" x="100" y="500"></rect>
        <rect width="100" height="100" x="100" y="600"></rect>
        <rect width="100" height="100" x="100" y="700"></rect>
        <rect width="100" height="100" x="100" y="800"></rect>
        <rect width="100" height="100" x="100" y="900"></rect>
        <rect width="100" height="100" x="100" y="1000"></rect>
        <rect width="100" height="100" x="200" y="0"></rect>
        <rect width="100" height="100" x="200" y="100"></rect>
        <rect width="100" height="100" x="200" y="200"></rect>
        <rect width="100" height="100" x="200" y="300"></rect>
        <rect width="100" height="100" x="200" y="400"></rect>
        <rect width="100" height="100" x="200" y="500"></rect>
        <rect width="100" height="100" x="200" y="600"></rect>
        <rect width="100" height="100" x="200" y="700"></rect>
        <rect width="100" height="100" x="200" y="800"></rect>
        <rect width="100" height="100" x="200" y="900"></rect>
        <rect width="100" height="100" x="200" y="1000"></rect>
        <rect width="100" height="100" x="300" y="0"></rect>
        <rect width="100" height="100" x="300" y="100"></rect>
        <rect width="100" height="100" x="300" y="200"></rect>
        <rect width="100" height="100" x="300" y="300"></rect>
        <rect width="100" height="100" x="300" y="400"></rect>
        <rect width="100" height="100" x="300" y="500"></rect>
        <rect width="100" height="100" x="300" y="600"></rect>
        <rect width="100" height="100" x="300" y="700"></rect>
        <rect width="100" height="100" x="300" y="800"></rect>
        <rect width="100" height="100" x="300" y="900"></rect>
        <rect width="100" height="100" x="300" y="1000"></rect>
        <rect width="100" height="100" x="400" y="0"></rect>
        <rect width="100" height="100" x="400" y="100"></rect>
        <rect width="100" height="100" x="400" y="200"></rect>
        <rect width="100" height="100" x="400" y="300"></rect>
        <rect width="100" height="100" x="400" y="400"></rect>
        <rect width="100" height="100" x="400" y="500"></rect>
        <rect width="100" height="100" x="400" y="600"></rect>
        <rect width="100" height="100" x="400" y="700"></rect>
        <rect width="100" height="100" x="400" y="800"></rect>
        <rect width="100" height="100" x="400" y="900"></rect>
        <rect width="100" height="100" x="400" y="1000"></rect>
        <rect width="100" height="100" x="500" y="0"></rect>
        <rect width="100" height="100" x="500" y="100"></rect>
        <rect width="100" height="100" x="500" y="200"></rect>
        <rect width="100" height="100" x="500" y="300"></rect>
        <rect width="100" height="100" x="500" y="400"></rect>
        <rect width="100" height="100" x="500" y="500"></rect>
        <rect width="100" height="100" x="500" y="600"></rect>
        <rect width="100" height="100" x="500" y="700"></rect>
        <rect width="100" height="100" x="500" y="800"></rect>
        <rect width="100" height="100" x="500" y="900"></rect>
        <rect width="100" height="100" x="500" y="1000"></rect>
        <rect width="100" height="100" x="600" y="0"></rect>
        <rect width="100" height="100" x="600" y="100"></rect>
        <rect width="100" height="100" x="600" y="200"></rect>
        <rect width="100" height="100" x="600" y="300"></rect>
        <rect width="100" height="100" x="600" y="400"></rect>
        <rect width="100" height="100" x="600" y="500"></rect>
        <rect width="100" height="100" x="600" y="600"></rect>
        <rect width="100" height="100" x="600" y="700"></rect>
        <rect width="100" height="100" x="600" y="800"></rect>
        <rect width="100" height="100" x="600" y="900"></rect>
        <rect width="100" height="100" x="600" y="1000"></rect>
        <rect width="100" height="100" x="700" y="0"></rect>
        <rect width="100" height="100" x="700" y="100"></rect>
        <rect width="100" height="100" x="700" y="200"></rect>
        <rect width="100" height="100" x="700" y="300"></rect>
        <rect width="100" height="100" x="700" y="400"></rect>
        <rect width="100" height="100" x="700" y="500"></rect>
        <rect width="100" height="100" x="700" y="600"></rect>
        <rect width="100" height="100" x="700" y="700"></rect>
        <rect width="100" height="100" x="700" y="800"></rect>
        <rect width="100" height="100" x="700" y="900"></rect>
        <rect width="100" height="100" x="700" y="1000"></rect>
        <rect width="100" height="100" x="800" y="0"></rect>
        <rect width="100" height="100" x="800" y="100"></rect>
        <rect width="100" height="100" x="800" y="200"></rect>
        <rect width="100" height="100" x="800" y="300"></rect>
        <rect width="100" height="100" x="800" y="400"></rect>
        <rect width="100" height="100" x="800" y="500"></rect>
        <rect width="100" height="100" x="800" y="600"></rect>
        <rect width="100" height="100" x="800" y="700"></rect>
        <rect width="100" height="100" x="800" y="800"></rect>
        <rect width="100" height="100" x="800" y="900"></rect>
        <rect width="100" height="100" x="800" y="1000"></rect>
        <rect width="100" height="100" x="900" y="0"></rect>
        <rect width="100" height="100" x="900" y="100"></rect>
        <rect width="100" height="100" x="900" y="200"></rect>
        <rect width="100" height="100" x="900" y="300"></rect>
        <rect width="100" height="100" x="900" y="400"></rect>
        <rect width="100" height="100" x="900" y="500"></rect>
        <rect width="100" height="100" x="900" y="600"></rect>
        <rect width="100" height="100" x="900" y="700"></rect>
        <rect width="100" height="100" x="900" y="800"></rect>
        <rect width="100" height="100" x="900" y="900"></rect>
        <rect width="100" height="100" x="900" y="1000"></rect>
        <rect width="100" height="100" x="1000" y="0"></rect>
        <rect width="100" height="100" x="1000" y="100"></rect>
        <rect width="100" height="100" x="1000" y="200"></rect>
        <rect width="100" height="100" x="1000" y="300"></rect>
        <rect width="100" height="100" x="1000" y="400"></rect>
        <rect width="100" height="100" x="1000" y="500"></rect>
        <rect width="100" height="100" x="1000" y="600"></rect>
        <rect width="100" height="100" x="1000" y="700"></rect>
        <rect width="100" height="100" x="1000" y="800"></rect>
        <rect width="100" height="100" x="1000" y="900"></rect>
    </g>
</svg>
